<?xml version="1.0" standalone="no"?>
<!DOCTYPE svg PUBLIC "-//W3C//DTD SVG 20010904//EN"
 "http://www.w3.org/TR/2001/REC-SVG-20010904/DTD/svg10.dtd">
<svg version="1.0" xmlns="http://www.w3.org/2000/svg"
 width="700.000000pt" height="700.000000pt" viewBox="0 0 700.000000 700.000000"
 preserveAspectRatio="xMidYMid meet">
<metadata>
Created by potrace 1.14, written by Peter Selinger 2001-2017
</metadata>
<g transform="translate(0.000000,700.000000) scale(0.100000,-0.100000)"
fill="#000000" stroke="none">
<path d="M2645 6938 c-77 -21 -170 -46 -206 -55 l-65 -16 36 -136 c21 -75 50
-183 65 -241 15 -58 41 -153 57 -211 l29 -107 -866 -866 c-608 -608 -872 -865
-883 -862 -10 3 -84 23 -167 45 -82 23 -166 46 -185 51 -19 5 -99 27 -177 48
l-141 38 -26 -90 c-14 -50 -37 -136 -51 -191 -14 -55 -28 -108 -31 -117 -4
-13 5 -19 38 -28 24 -6 66 -17 93 -25 79 -23 508 -137 529 -141 11 -2 23 -7
27 -11 3 -5 23 -71 43 -148 20 -77 79 -300 132 -495 52 -195 97 -362 99 -370
2 -8 22 -85 45 -170 23 -85 43 -162 45 -170 2 -8 11 -41 19 -72 18 -67 29
-108 95 -353 27 -99 52 -193 56 -210 5 -16 9 -34 11 -40 22 -81 57 -214 70
-264 l17 -65 -257 -252 -256 -253 152 -151 151 -151 252 251 c284 283 244 261
385 221 41 -12 158 -44 260 -71 102 -27 201 -54 220 -60 39 -12 477 -130 500
-135 8 -2 80 -22 160 -44 80 -21 262 -71 405 -110 562 -152 668 -181 671 -183
1 -2 11 -37 22 -78 85 -332 169 -620 180 -620 19 0 406 110 414 118 4 4 -9 63
-28 132 -19 69 -61 222 -93 340 l-58 215 189 190 189 190 241 -243 240 -243
481 481 481 481 -112 112 c-61 62 -167 169 -236 239 l-125 128 199 198 199
199 322 -89 c177 -48 330 -90 340 -93 14 -5 20 2 28 32 66 237 101 376 96 382
-2 5 -17 11 -32 13 -16 3 -147 38 -293 77 -146 40 -274 74 -284 76 -85 19 -74
-1 -149 282 -38 142 -72 274 -77 293 -5 19 -23 87 -40 150 -17 63 -33 122 -35
130 -3 16 -139 528 -157 595 -6 22 -13 47 -14 55 -2 8 -20 74 -40 145 -19 72
-38 141 -41 155 -3 14 -22 88 -43 165 -21 77 -55 204 -76 283 l-38 143 248
248 248 249 -151 151 -152 152 -250 -248 c-138 -136 -252 -249 -254 -251 -1
-2 -56 11 -121 29 -66 17 -202 54 -304 80 -878 233 -1931 516 -1935 521 -1 2
-7 23 -14 48 -6 25 -13 52 -16 60 -103 381 -157 575 -158 576 -1 0 -65 -17
-142 -38z m650 -1183 c94 -24 186 -49 205 -55 36 -11 363 -98 390 -105 8 -1
42 -10 75 -20 33 -9 92 -25 130 -35 39 -10 97 -26 130 -35 94 -25 539 -145
648 -173 53 -14 97 -29 97 -34 0 -4 -89 -97 -199 -206 l-198 -198 -134 37
c-141 39 -648 178 -834 229 -60 17 -126 35 -145 40 -19 5 -73 20 -120 33 l-85
24 -26 99 c-15 54 -45 170 -68 257 -23 87 -45 165 -48 173 -3 8 -1 14 3 14 5
0 86 -20 179 -45z m-518 -388 l58 -227 -485 -486 c-547 -547 -475 -494 -615
-455 -38 11 -150 42 -248 69 l-179 48 397 395 c217 217 529 526 693 687 l296
294 13 -49 c7 -26 39 -150 70 -276z m2638 -802 c48 -181 89 -338 91 -348 1
-10 8 -32 14 -50 5 -18 58 -214 116 -437 59 -223 119 -450 134 -505 15 -55 26
-101 25 -103 -2 -2 -32 4 -67 13 -34 9 -70 18 -78 20 -8 2 -76 19 -150 39 -74
19 -162 42 -194 50 -32 9 -60 17 -61 18 -3 3 -255 935 -260 960 -2 9 -13 50
-24 90 -11 40 -29 107 -40 148 -11 41 -24 90 -30 107 l-10 33 207 205 207 204
17 -57 c9 -31 55 -205 103 -387z m-1595 95 c206 -56 381 -102 388 -103 6 0 12
-4 12 -9 0 -4 -137 -146 -304 -315 l-304 -307 -13 44 c-7 25 -13 50 -15 55 -3
18 -73 279 -84 315 -6 19 -33 121 -60 225 -28 105 -52 195 -55 202 -2 8 5 9
28 2 18 -4 201 -54 407 -109z m-741 -415 c62 -229 111 -418 108 -422 -4 -3
-39 3 -79 15 -40 11 -152 41 -248 67 -388 101 -513 134 -516 138 -4 4 608 617
616 617 3 0 56 -187 119 -415z m1491 -112 c16 -59 38 -144 50 -188 42 -161 92
-350 96 -365 2 -8 12 -49 23 -90 26 -94 26 -104 4 -95 -10 3 -58 17 -108 30
-246 66 -356 96 -533 145 l-193 53 312 313 c172 172 315 312 317 310 2 -3 16
-53 32 -113z m-3197 -283 c78 -22 176 -49 217 -60 178 -49 155 -33 180 -124
12 -45 26 -92 30 -106 9 -25 76 -278 85 -315 2 -11 29 -112 60 -225 85 -311
103 -377 130 -478 13 -51 26 -96 29 -101 6 -10 -388 -411 -403 -411 -5 0 -18
37 -29 83 -11 45 -47 183 -80 307 -33 124 -74 277 -91 340 -16 63 -41 158 -55
210 -14 52 -39 149 -56 215 -18 66 -41 154 -52 195 -11 41 -22 82 -24 90 -2 8
-17 67 -34 130 -17 63 -33 124 -35 135 -3 11 -13 50 -23 88 -16 56 -17 67 -5
67 8 0 78 -18 156 -40z m1017 -270 c63 -17 153 -42 200 -55 106 -30 272 -76
285 -79 13 -3 85 -23 153 -42 l52 -15 -307 -304 c-169 -167 -309 -302 -311
-300 -2 2 -7 18 -12 37 -5 18 -27 99 -49 181 -22 81 -55 200 -72 265 -17 64
-42 158 -55 207 -38 137 -39 148 -17 141 10 -3 70 -19 133 -36z m1050 -780
c28 -102 55 -201 60 -220 45 -155 90 -333 86 -337 -3 -3 -139 32 -303 76 -164
45 -309 84 -323 87 -36 7 -192 53 -197 58 -2 2 133 139 299 306 l303 302 13
-43 c6 -24 35 -127 62 -229z m-860 -729 c80 -22 181 -49 225 -61 44 -12 105
-28 135 -36 30 -8 62 -17 71 -19 9 -2 47 -12 85 -23 38 -11 116 -32 174 -47
58 -15 141 -38 185 -50 44 -13 118 -33 165 -45 96 -26 106 -32 113 -63 2 -12
15 -58 27 -102 23 -82 37 -136 45 -169 2 -10 9 -33 15 -51 6 -18 12 -41 15
-51 2 -10 11 -41 19 -69 9 -27 16 -55 16 -61 0 -7 -47 2 -122 23 -68 19 -134
36 -148 39 -14 2 -38 9 -55 14 -32 10 -520 139 -545 145 -9 2 -92 24 -185 49
-194 52 -510 136 -534 141 -34 9 -178 47 -228 61 l-52 14 206 204 c113 113
210 203 217 201 6 -3 76 -22 156 -44z"/>
</g>
</svg>
